<svg width="61" height="61" viewBox="0 0 61 61" fill="none" xmlns="http://www.w3.org/2000/svg">
<path d="M36.7385 17.5372C38.3046 17.5372 39.5742 16.2718 39.5742 14.7108C39.5742 13.1498 38.3046 11.8843 36.7385 11.8843C35.1724 11.8843 33.9028 13.1498 33.9028 14.7108C33.9028 16.2718 35.1724 17.5372 36.7385 17.5372Z" fill="white"/>
<path d="M28.6904 14.9504C26.5747 14.9846 24.5161 15.6485 22.7733 16.8588C21.0306 18.069 19.6813 19.7716 18.895 21.7526C18.1088 23.7337 17.9206 25.9048 18.354 27.9934C18.7875 30.0819 19.8234 31.9948 21.3315 33.4916C22.8396 34.9884 24.7527 36.0024 26.8305 36.4062C28.9083 36.8101 31.0581 36.5858 33.0099 35.7615C34.9616 34.9372 36.6283 33.5497 37.8006 31.7733C38.9729 29.9968 39.5985 27.9107 39.5987 25.7769C39.5902 24.3429 39.3009 22.9248 38.7476 21.6038C38.1942 20.2829 37.3877 19.0851 36.3742 18.0792C35.3607 17.0734 34.1602 16.2792 32.8417 15.7423C31.5231 15.2053 30.1124 14.9363 28.6904 14.9504ZM28.7724 33.3058C27.3065 33.2862 25.8792 32.83 24.6698 31.9946C23.4604 31.1591 22.5229 29.9817 21.9754 28.6104C21.4278 27.2391 21.2946 25.7352 21.5924 24.2877C21.8902 22.8403 22.6058 21.5139 23.6492 20.4755C24.6926 19.4371 26.0172 18.7329 27.4563 18.4517C28.8955 18.1704 30.3851 18.3245 31.7376 18.8946C33.0902 19.4648 34.2453 20.4255 35.0579 21.6559C35.8704 22.8864 36.304 24.3316 36.3041 25.8099C36.2987 26.8011 36.0996 27.7815 35.7179 28.695C35.3363 29.6085 34.7798 30.4371 34.0802 31.1333C33.3806 31.8296 32.5517 32.3799 31.6409 32.7527C30.7301 33.1255 29.7553 33.3134 28.7724 33.3058Z" fill="white"/>
<path d="M32.1737 36.2728C30.7185 36.2891 29.3005 36.7392 28.0984 37.5663C26.8962 38.3935 25.9636 39.5607 25.4179 40.9212C24.8721 42.2817 24.7377 43.7746 25.0315 45.2119C25.3253 46.6492 26.0342 47.9668 27.0689 48.9988C28.1037 50.0308 29.418 50.731 30.8465 51.0114C32.2751 51.2917 33.7539 51.1397 35.0969 50.5744C36.44 50.0091 37.5871 49.0557 38.394 47.8344C39.201 46.6131 39.6316 45.1784 39.6317 43.7108C39.6317 42.727 39.4383 41.753 39.0625 40.8452C38.6867 39.9373 38.136 39.1137 37.4424 38.4219C36.7487 37.7301 35.9259 37.184 35.0216 36.8151C34.1172 36.4462 33.1492 36.2619 32.1737 36.2728ZM32.2311 48.0166C31.3875 48.0052 30.5661 47.7425 29.8701 47.2616C29.1742 46.7807 28.6348 46.103 28.3198 45.3138C28.0048 44.5245 27.9282 43.659 28.0997 42.826C28.2712 41.993 28.6831 41.2298 29.2836 40.6322C29.8841 40.0346 30.6464 39.6295 31.4747 39.4676C32.303 39.3058 33.1602 39.3946 33.9386 39.7227C34.7169 40.0509 35.3817 40.6038 35.8493 41.3119C36.3169 42.0201 36.5664 42.8518 36.5665 43.7026C36.5633 44.2737 36.4483 44.8387 36.2281 45.3649C36.0078 45.8912 35.6867 46.3684 35.2831 46.7692C34.8796 47.17 34.4015 47.4865 33.8763 47.7006C33.3512 47.9147 32.7893 48.0221 32.2229 48.0166H32.2311Z" fill="white"/>
<path d="M30.3625 60.9752C24.4785 60.9752 18.7266 59.2157 13.8343 55.9193C8.94195 52.6229 5.12884 47.9375 2.87714 42.4557C0.625441 36.9739 0.0362911 30.9419 1.1842 25.1225C2.3321 19.3031 5.16551 13.9576 9.32611 9.76202C13.4867 5.56645 18.7876 2.70923 24.5585 1.55168C30.3295 0.394119 36.3112 0.988215 41.7473 3.25884C47.1833 5.52947 51.8296 9.37465 55.0986 14.3081C58.3676 19.2416 60.1124 25.0418 60.1124 30.9752C60.1037 38.929 56.9665 46.5546 51.3892 52.1788C45.8119 57.8029 38.25 60.9665 30.3625 60.9752ZM30.3625 4.28928C25.1288 4.28602 20.0118 5.84772 15.6582 8.77692C11.3047 11.7061 7.91027 15.8713 5.90408 20.7458C3.89788 25.6203 3.37005 30.9852 4.3873 36.1621C5.40456 41.3391 7.92123 46.0957 11.6191 49.8304C15.317 53.5651 20.03 56.1103 25.1622 57.1442C30.2945 58.178 35.6154 57.654 40.4524 55.6385C45.2893 53.623 49.425 50.2065 52.3366 45.8209C55.2481 41.4353 56.8047 36.2776 56.8095 31C56.8009 23.928 54.0122 17.1479 49.0548 12.1457C44.0974 7.14348 37.3755 4.3272 30.3625 4.31408V4.28928Z" fill="white"/>
</svg>
